<?xml version="1.0" encoding="UTF-8"?>
<svg xmlns="http://www.w3.org/2000/svg" version="1.1" viewBox="0 0 278.81 278.8">
  <defs>
    <style>
      .st0 {
        fill: #a75e51;
      }

      .st1, .st2 {
        fill: #1c263b;
      }

      .st3 {
        fill: #f4ebe0;
      }

      .st2 {
        opacity: .7;
      }
    </style>
  </defs>
  <g id="Flaechen">
    <path class="st3" d="M228.79,216.11c-2.91,1.18-5.84,2.17-8.8,2.97,1.53-6.45,2.31-13.08,2.26-19.71.14-21.64-7.98-41.71-21.55-56.69,13.8-15.35,21.71-35.99,21.55-56.69.05-6.94-.76-13.73-2.33-20.23,17.86,5.43,33.67,17.52,43.59,33.4,26.51,41.15,11.76,98.26-34.72,116.95Z"/>
    <path class="st2" d="M221.75,85.99c.19,20.45-8.73,40.23-23.12,54.48-9.37-9.62-21.09-16.92-34.32-20.84-1.57-5.35-3.75-10.65-6.6-15.82-3.65-6.69-8.31-12.72-13.7-17.97,13.9-14.22,32.97-23.33,54.37-23.23,6.99-.07,13.9.93,20.55,2.86,1.87,6.51,2.85,13.39,2.82,20.52Z"/>
    <path class="st0" d="M159.99,166.54c-3.3,11.35-9.09,21.92-17.2,30.73-8.39-8.61-14.89-19.17-18.55-31.16,11.54,2.83,23.73,3.14,35.75.43Z"/>
    <path class="st3" d="M61.85,215.25c.18.85.37,1.69.58,2.53-26.41-8.6-48.17-30.75-53.61-59.95C.69,118.34,25.09,78.16,61.99,66.19c-2.66,11.34-2.88,23.45-.14,35.68,3.29,15.42,10.72,28.96,20.79,39.74-17.97,18.79-27.01,45.91-20.79,73.64Z"/>
    <path class="st0" d="M117.37,160.86c-11.18-3.32-21.58-9.07-30.28-17.07,8.36-8.15,18.56-14.51,30.13-18.23-1.21,5.5-1.84,11.22-1.83,17.12-.03,6.26.65,12.34,1.98,18.18Z"/>
    <path class="st3" d="M160.83,123.96c-11-2.72-22.68-3.14-34.3-.75-1.24.23-2.46.49-3.67.78-2.63,10.87-3.01,22.38-.65,33.84.28,1.53.61,3.04.99,4.53,12.36,2.69,25.44,2.51,38.06-.75,2.73-12.22,2.65-25.15-.43-37.65ZM150.99,144.6c-.07,2.51-.33,5.1-1.72,7.38-2.23,3.87-7.82,4.65-11.3,2.07-3.23-2.32-5.51-5.42-6.3-9.45-1.21-5.92,4.24-11.75,10.22-11.52,6.49.1,9.34,5.73,9.1,11.52Z"/>
    <path class="st2" d="M150.49,143.6c.14,3.41-3.24,5.4-6.06,6.13-3.69,1.3-8.53,1.47-9.94-3.07-1.25-4.61,2.94-9.29,7.4-9.24,3.65-.1,8.59,1.83,8.6,6.18Z"/>
    <path class="st0" d="M159.21,118.31c-5.62-1.27-11.49-1.93-17.53-1.92-5.91-.03-11.65.58-17.18,1.76,3.59-11.11,9.54-21.36,17.3-29.96,3.09,3.4,5.88,7.07,8.32,10.97,3.93,6.09,6.95,12.53,9.09,19.15Z"/>
    <path class="st2" d="M139.47,85.73c-9.51,9.27-16.74,20.82-20.69,33.85-13.49,3.92-25.48,11.26-35.06,20.92-6.41-6.7-11.72-14.76-15.47-24.1-6.92-17-7.13-35.04-2.15-51.41,6.02-1.58,12.35-2.41,18.89-2.38,20.45-.19,40.23,8.73,54.48,23.12Z"/>
    <path class="st0" d="M194.17,139.8c-3.4,3.09-7.07,5.88-10.97,8.32-6.41,4.13-13.22,7.26-20.2,9.43,2.86-11.35,3.26-23.34.76-35.19,11.28,3.57,21.7,9.58,30.41,17.44Z"/>
    <path class="st3" d="M218.42,221.5c-5.51,17.63-17.51,33.2-33.22,43.01-41.15,26.5-98.26,11.76-116.95-34.72-.98-2.41-1.83-4.85-2.54-7.3,11.19,2.55,23.12,2.72,35.16.02,15.42-3.29,28.96-10.72,39.74-20.79,18.8,17.97,45.91,27.01,73.64,20.79,1.41-.3,2.8-.63,4.17-1.01Z"/>
    <path class="st3" d="M218.65,64.51c-6.63-1.63-13.45-2.45-20.27-2.4-21.64-.14-41.72,7.99-56.7,21.55-15.35-13.81-35.99-21.71-56.69-21.55-6.37-.04-12.6.63-18.61,1.95,8.45-26.7,30.72-48.76,60.15-54.24,40.03-8.25,80.77,16.94,92.12,54.69Z"/>
    <path class="st2" d="M221.75,199.37c.06,6.78-.87,13.49-2.69,19.95-27.27,7-55.87-1.95-75.11-20.9,8.96-9.34,15.69-20.6,19.6-32.77,5.76-1.59,11.45-3.88,17-6.94,6.69-3.66,12.71-8.31,17.97-13.7,14.22,13.89,23.33,32.96,23.23,54.36Z"/>
    <path class="st2" d="M139.49,200.64c-6.7,6.41-14.75,11.72-24.09,15.47-16.77,6.82-34.56,7.12-50.75,2.35-6.26-26.79,2.71-54.65,21.29-73.51,9.22,8.85,20.32,15.52,32.31,19.45,3.82,13.97,11.3,26.38,21.24,36.24Z"/>
  </g>
  <g id="Kreise">
    <path class="st1" d="M198.7,139.68c-.67-.75-1.36-1.49-2.07-2.21-9.37-9.62-21.09-16.92-34.32-20.84-1.67-.5-3.38-.94-5.1-1.32-5.62-1.27-11.49-1.93-17.53-1.92-5.91-.03-11.65.58-17.18,1.76-1.94.4-3.84.88-5.72,1.43-13.49,3.92-25.48,11.26-35.06,20.92-.37.36-.73.73-1.08,1.11-17.97,18.79-27.01,45.91-20.79,73.64.18.85.37,1.69.58,2.53.35,1.42.73,2.82,1.16,4.2,14.62,48.44,70.88,75.49,116.96,50.11,19.45-10.62,33.27-29.66,38.89-50.87h.01c.19-.71.37-1.42.54-2.14,1.53-6.45,2.31-13.08,2.26-19.71.14-21.64-7.98-41.71-21.55-56.69ZM217.06,216.32c-.2.73-.41,1.46-.64,2.18-5.51,17.63-17.51,33.2-33.22,43.01-41.15,26.5-98.26,11.76-116.95-34.72-.98-2.41-1.83-4.85-2.54-7.3-.4-1.34-.75-2.68-1.06-4.03-6.26-26.79,2.71-54.65,21.29-73.51.38-.39.76-.78,1.15-1.16,8.36-8.15,18.56-14.51,30.13-18.23,1.84-.59,3.72-1.12,5.64-1.57,1.21-.29,2.43-.55,3.67-.78,11.62-2.39,23.3-1.97,34.3.75,1.66.42,3.3.88,4.93,1.4,11.28,3.57,21.7,9.58,30.41,17.44.8.72,1.58,1.46,2.35,2.21,14.22,13.89,23.33,32.96,23.23,54.36.06,6.78-.87,13.49-2.69,19.95Z"/>
    <path class="st1" d="M217.92,62.76c-.07-.33-.15-.66-.24-.99C208.81,26.69,177.84-.07,139.68,0c-38.83-.19-70.72,27.09-79.42,62.08-.1.37-.19.74-.27,1.11-2.66,11.34-2.88,23.45-.14,35.68,3.29,15.42,10.72,28.96,20.79,39.74,1.07,1.15,2.17,2.26,3.3,3.34,9.22,8.85,20.32,15.52,32.31,19.45,1.97.65,3.97,1.22,5.99,1.71,11.54,2.83,23.73,3.14,35.75.43,1.19-.27,2.38-.56,3.56-.89,5.76-1.59,11.45-3.88,17-6.94,6.69-3.66,12.71-8.31,17.97-13.7.74-.76,1.47-1.54,2.18-2.33,13.8-15.35,21.71-35.99,21.55-56.69.05-6.94-.76-13.73-2.33-20.23ZM196.63,137.47c-.8.8-1.62,1.57-2.46,2.33-3.4,3.09-7.07,5.88-10.97,8.32-6.41,4.13-13.22,7.26-20.2,9.43-1.24.38-2.49.73-3.74,1.06-12.62,3.26-25.7,3.44-38.06.75-1.97-.43-3.91-.93-5.83-1.5-11.18-3.32-21.58-9.07-30.28-17.07-1.15-1.06-2.27-2.15-3.37-3.29-6.41-6.7-11.72-14.76-15.47-24.1-6.92-17-7.13-35.04-2.15-51.41.08-.31.18-.62.28-.93,8.45-26.7,30.72-48.76,60.15-54.24,40.03-8.25,80.77,16.94,92.12,54.69.1.32.19.64.28.96,1.87,6.51,2.85,13.39,2.82,20.52.19,20.45-8.73,40.23-23.12,54.48Z"/>
    <path class="st1" d="M139.89,130.08c-5.98-.23-11.43,5.6-10.22,11.52.79,4.03,3.07,7.13,6.3,9.45,3.48,2.58,9.07,1.8,11.3-2.07,1.39-2.28,1.65-4.87,1.72-7.38.24-5.79-2.61-11.42-9.1-11.52ZM142.43,147.73c-3.69,1.3-8.53,1.47-9.94-3.07-1.25-4.61,2.94-9.29,7.4-9.24,3.65-.1,8.59,1.83,8.6,6.18.14,3.41-3.24,5.4-6.06,6.13Z"/>
    <path class="st1" d="M269.1,100.81c-10.72-19.62-30-33.51-51.42-39.04-.34-.09-.69-.18-1.03-.26-6.63-1.63-13.45-2.45-20.27-2.4-21.64-.14-41.72,7.99-56.7,21.55-.75.67-1.49,1.37-2.21,2.07-9.51,9.27-16.74,20.82-20.69,33.85-.6,1.96-1.12,3.95-1.56,5.98-1.21,5.5-1.84,11.22-1.83,17.12-.03,6.26.65,12.34,1.98,18.18.26,1.19.55,2.37.88,3.54,3.82,13.97,11.3,26.38,21.24,36.24.37.37.74.73,1.12,1.08,18.8,17.97,45.91,27.01,73.64,20.79,1.41-.3,2.8-.63,4.17-1.01.34-.08.68-.18,1.02-.28h.01c49.39-13.89,77.29-70.85,51.65-117.41ZM226.79,213.11c-2.91,1.18-5.84,2.17-8.8,2.97-.31.08-.62.16-.93.24-27.27,7-55.87-1.95-75.11-20.9-.39-.38-.78-.76-1.16-1.15-8.39-8.61-14.89-19.17-18.55-31.16-.38-1.23-.73-2.48-1.04-3.75-.38-1.49-.71-3-.99-4.53-2.36-11.46-1.98-22.97.65-33.84.47-1.97,1.02-3.92,1.64-5.84,3.59-11.11,9.54-21.36,17.3-29.96.72-.8,1.46-1.58,2.21-2.35,13.9-14.22,32.97-23.33,54.37-23.23,6.99-.07,13.9.93,20.55,2.86.33.09.66.19.99.29,17.86,5.43,33.67,17.52,43.59,33.4,26.51,41.15,11.76,98.26-34.72,116.95Z"/>
    <path class="st1" d="M163.76,122.36c-.41-1.92-.89-3.83-1.45-5.73-1.57-5.35-3.75-10.65-6.6-15.82-3.65-6.69-8.31-12.72-13.7-17.97-.76-.74-1.54-1.47-2.33-2.18-15.35-13.81-35.99-21.71-56.69-21.55-6.37-.04-12.6.63-18.61,1.95-1.38.3-2.76.64-4.12,1.02C25.93,71.45-.07,102.06,0,139.68c-.19,38.65,26.84,70.42,61.59,79.3.71.19,1.41.36,2.12.51,11.19,2.55,23.12,2.72,35.16.02,15.42-3.29,28.96-10.72,39.74-20.79,1.15-1.07,2.26-2.17,3.34-3.3,8.96-9.34,15.69-20.6,19.6-32.77.54-1.68,1.02-3.38,1.45-5.1,4.84-19.22,6.61-7.47.76-35.19ZM157.99,163.54c-3.3,11.35-9.09,21.92-17.2,30.73-1.06,1.16-2.16,2.28-3.3,3.37-6.7,6.41-14.75,11.72-24.09,15.47-16.77,6.82-34.56,7.12-50.75,2.35-.75-.21-1.49-.44-2.22-.68-26.41-8.6-48.17-30.75-53.61-59.95C-1.31,115.34,23.09,75.16,59.99,63.19c1.35-.44,2.72-.84,4.11-1.2,6.02-1.58,12.35-2.41,18.89-2.38,20.45-.19,40.23,8.73,54.48,23.12.8.8,1.57,1.62,2.33,2.46,3.09,3.4,5.88,7.07,8.32,10.97,3.93,6.09,6.95,12.53,9.09,19.15.61,1.87,1.15,3.76,1.62,5.65,3.08,12.5,3.16,25.43.43,37.65-.37,1.66-.79,3.3-1.27,4.93Z"/>
  </g>
</svg>
